<?xml version="1.0" encoding="UTF-8"?> <svg xmlns="http://www.w3.org/2000/svg" id="uuid-d20eee10-fb01-4d2e-a8ff-0c79b9e12e68" data-name="Layer 2" width="480" height="480" viewBox="0 0 480 480"><g id="uuid-682411f1-9b8d-44ab-81e2-6bb75cf44709" data-name="uuid-036f65ac-4baf-480d-981f-d03cf63db358"><rect width="480" height="480" style="fill: none;"></rect><g><path d="M469.99963,299.46878l.00005,1.88303-2.81289,2.65195c-9.73057-7.08324-26.40319-9.48856-37.12239-3.59865-10.21633,5.6136-10.07415,18.87388.13161,24.36093,10.85096,5.83394,27.1531,3.07453,36.99742-3.84483l2.80686,3.02696.00004,1.50642c-4.08111,2.55281-8.44507,4.74971-13.18011,5.84158-2.49496.57532-5.05516.72716-7.53758,1.31448-2.70266-.1542-5.61398.2107-8.28716.00022-11.95872-.94161-25.16817-7.80425-24.10196-21.64888,1.23972-16.09762,21.49953-19.78944,34.41228-18.22407,6.67088.80869,13.08287,3.1267,18.69384,6.73086Z" style="fill: #fff;"></path><path d="M10.06279,310.02591c2.29828-19.18889,31.7459-19.89019,45.57306-14.49463,1.35483.52867,7.44217,3.33167,7.56055,4.51675-.01539,1.62934-1.60854,2.44408-2.27757,3.78014l-.55604.18639c-8.96201-6.30603-20.72848-8.40555-31.39988-5.78627-17.86592,4.38516-17.73883,24.31407-.14182,28.63267,10.55737,2.59095,22.36537.37223,31.24297-5.84381l.804-.02161c.42174,1.44554,2.82322,2.51784,2.26816,4.21594-.34895,1.06755-7.37955,4.27155-8.80231,4.78303-3.47199,1.24816-8.20806,2.35807-11.87528,2.62691l-8.28716.00022c-1.68371-.50628-3.49913-.55997-5.27752-.93752-9.00975-1.91276-16.86121-6.8483-18.83102-16.38571.14219-1.68562-.19681-3.63047-.00014-5.27248Z" style="fill: #fff;"></path><path d="M398.80141,147.32186l-21.01544,30.39566c-4.56049,17.06373-5.19057,37.31853-10.4317,53.96907-4.07664,12.95109-22.05586,14.50769-33.71236,17.1373-30.73187,6.93285-61.80909,12.54178-92.8609,17.91789-32.29537-5.59662-64.69254-11.28999-96.62272-18.667-7.62638-1.76196-21.94514-4.22757-27.10863-10.18088-2.19618-2.53212-3.09017-5.72339-3.89578-8.90981-4.20695-16.63966-5.80224-34.50053-9.75346-51.25995l-21.01768-30.39391,316.41866-.00836ZM382.22725,152.97139l-282.89335.00748,16.38906,24.09989c3.50997,16.5248,4.8963,34.07229,8.6499,50.48024,1.73603,7.58865,3.08147,10.17998,10.75036,12.60162,6.76339,2.13571,15.09936,3.43586,22.1512,4.96885,27.68144,6.01764,55.55176,11.31632,83.509,15.96104,27.30835-4.63371,54.56293-9.72569,81.62475-15.5888,7.26211-1.57338,15.4856-2.93947,22.53396-4.9637,7.11404-2.0431,9.58179-3.79488,11.4884-11.1105,4.31575-16.55944,5.32668-35.22927,8.94986-52.06114l16.84687-24.39499Z" style="fill: #fff;"></path><path d="M145.29467,331.86548l-.00103-38.79041c7.07655.22498,14.22418-.29641,21.29846-.0161,14.2513.56469,29.59274,3.44558,28.44228,21.30992-1.44162,22.38529-34.81948,16.73456-49.73971,17.49659ZM150.94488,326.96945c11.63407-.72326,37.37242,4.08597,38.43734-13.3536,1.19524-19.57375-26.14971-15.08717-38.43811-15.64506l.00077,28.99866Z" style="fill: #fff;"></path><path d="M131.35718,331.86584l-6.02702.00016-6.28814-9.71909-31.59264-.09496-1.10318.4035-6.03035,9.41173-5.83868.00015c-.04858-1.55302,1.25772-3.13796,2.10346-4.48754,7.19897-11.48765,15.46702-22.36224,22.57119-33.92437.65082-.54304,6.64594-.60984,7.34005-.18822l24.42931,36.58624.43601,2.01239ZM115.91255,317.17862l-11.86045-18.83328c-.37842-.41459-.98984-.45765-1.51497-.41369-1.14686.09601-10.90611,17.20125-12.61611,19.24766l25.99153-.00069Z" style="fill: #fff;"></path><path d="M408.6002,331.85852l-6.02702.00016-6.27779-9.72944-31.603-.0846-1.10318.4035-6.03035,9.41173-5.83868.00015.35061-1.72109,24.32404-36.69081c.73175-.61056,6.77577-.63099,7.52867-.0002l24.24068,36.39821.43601,2.01239ZM393.15557,317.17129l-11.86045-18.83328c-.37842-.41459-.98984-.45765-1.51497-.41369-1.14686.09601-10.90611,17.20125-12.61611,19.24766l25.99153-.00069Z" style="fill: #fff;"></path><path d="M300.86705,326.96549l38.42227-.00102-1.50663,4.89592-42.56584.00113-.00101-38.2255c1.25459-.92282,4.43968-.91019,5.65033-.00015l.00088,33.32963Z" style="fill: #fff;"></path><path d="M240.22014,326.96709l38.42227-.00102-1.50663,4.89592-42.56584.00113-.00101-38.2255c1.25459-.92282,4.43968-.91019,5.65033-.00015l.00088,33.32963Z" style="fill: #fff;"></path><rect x="210.83802" y="293.05414" width="5.65033" height="38.80953" style="fill: #fff;"></rect><polygon points="360.0034 183.10045 356.99038 201.55422 289.56307 201.556 289.56259 183.66722 290.12761 183.1023 360.0034 183.10045" style="fill: #fff;"></polygon><polygon points="195.0154 248.63425 195.0148 225.66128 238.52236 225.66013 239.08741 226.22503 239.0882 255.9769 238.23919 256.46835 195.0154 248.63425" style="fill: #fff;"></polygon><polygon points="192.00073 204.57143 192.0012 222.46021 127.58613 222.65214 124.57342 204.57321 192.00073 204.57143" style="fill: #fff;"></polygon><polygon points="238.70942 177.07796 238.70966 186.1165 121.55942 186.1196 120.05243 177.0811 238.70942 177.07796" style="fill: #fff;"></polygon><path d="M353.97734,219.63139c-.54764,3.09083-.88195,6.61135-2.07154,9.4152l-109.42812.00289-.00025-9.41515,111.49991-.00295Z" style="fill: #fff;"></path><rect x="242.47615" y="162.01304" width="44.0726" height="18.07709" style="fill: #fff;"></rect><path d="M351.34084,231.68285c-2.60279,4.79247-10.40078,5.39429-15.43907,6.59601-30.81653,7.35029-62.279,12.46878-93.42336,18.26286l-.00066-24.85599,108.86309-.00288ZM322.71256,234.69645l-77.22122.00204.00048,18.07709c20.69048-3.97372,42.06789-6.9303,62.53514-11.85964,3.62438-.8729,11.55046-2.57993,14.11427-5.09588.36859-.36171.70826-.49225.57134-1.1236Z" style="fill: #fff;"></path><polygon points="239.08571 162.01371 239.08603 174.0651 235.69583 174.06519 235.69559 165.02665 141.52337 165.02914 146.42057 174.06755 118.54559 174.06829 110.63481 162.01711 239.08571 162.01371" style="fill: #fff;"></polygon><path d="M235.69656,201.55743l-.00025-9.41515-85.13169.00225.75363,9.41513-27.1216.00072-1.88377-12.42795,116.20852-.00307.56505.56489.0003,11.29818c-.80212.98464-2.25415.45933-3.39018.565Z" style="fill: #fff;"></path><polygon points="356.61377 204.56708 354.66006 216.35966 354.16562 216.99514 327.98574 216.99583 329.11556 207.58065 245.49063 207.58286 245.49088 216.99801 242.47737 216.99809 242.47704 204.5701 356.61377 204.56708" style="fill: #fff;"></polygon><polygon points="366.4067 167.65944 362.07495 174.06185 289.56234 174.06377 289.56219 168.22638 290.12721 167.66145 366.4067 167.65944" style="fill: #fff;"></polygon><path d="M192.00144,231.68706l.00017,6.4023-47.65114.00126c-1.05605.00003-8.55403-2.04729-9.86688-2.56309-1.94194-.76297-3.73458-1.87923-4.63581-3.83882l62.15366-.00164Z" style="fill: #fff;"></path><rect x="195.01448" y="210.21986" width="43.98109" height="6.77891" style="fill: #fff;"></rect><rect x="242.47671" y="189.12867" width="44.0726" height="6.4023" style="fill: #fff;"></rect></g></g></svg> 