<svg xmlns="http://www.w3.org/2000/svg" fill="none" viewBox="0 0 96 24"><g clip-path="url(#f1_logo_svg__a)"><path fill="#E10600" d="M23.904 13.493 13.399 23.684H0L16.67 7.14C22.868 1.007 25.855 0 36.422 0H78.16l-9.059 8.87H37.616c-7.895 0-9.575.609-13.715 4.623zm43.845-3.208H37.806c-7.952 0-9.195.61-12.802 4.214l-9.185 9.185h12.424L31.2 20.73c1.954-1.954 2.825-2.14 6.762-2.14h21.484zm3.24 13.4L94.737 0H79.986L56.302 23.684H70.99zM80.963 23.684q-1.122 0-1.863-.75-.743-.75-.742-1.845 0-1.096.737-1.84.736-.745 1.858-.746 1.12 0 1.853.75t.733 1.846-.728 1.84q-.728.744-1.848.745m-.015-4.774q-.918 0-1.54.637-.617.635-.618 1.542 0 .905.619 1.542.618.636 1.54.636c.614 0 1.124-.21 1.539-.631q.619-.632.619-1.542a2.14 2.14 0 0 0-.62-1.547q-.617-.637-1.539-.637m-.506 2.61v1.017h-.57v-2.874h1.081q.56 0 .841.21.282.207.282.626 0 .418-.114.622a.8.8 0 0 1-.387.328l.54 1.09h-.6l-.49-1.016h-.58zm-.01-1.413v.967h.58q.267 0 .383-.114.118-.114.118-.37.001-.484-.61-.483z"></path></g><defs><clipPath id="f1_logo_svg__a"><path fill="#fff" d="M0 0h150.237v24H0z"></path></clipPath></defs></svg>